# Blender 4.0.2
# www.blender.org
mtllib encased.mtl
o encased_large_andesite
v 0.312500 0.281250 0.312500
v 0.312500 0.281250 0.687500
v 0.687500 0.281250 0.312500
v 0.687500 0.281250 0.687500
v 0.312500 0.718750 0.312500
v 0.312500 0.718750 0.687500
v 0.687500 0.718750 0.312500
v 0.687500 0.718750 0.687500
v 0.214145 0.400808 -0.190116
v -0.190116 0.400808 0.214145
v -0.190116 0.400808 0.785855
v 0.214145 0.400808 1.190116
v 0.785855 0.400808 1.190116
v 1.190116 0.400808 0.785855
v 1.190116 0.400808 0.214145
v 0.785855 0.400808 -0.190116
v 0.500000 0.400808 0.500000
v 0.500000 0.599192 0.500000
v -0.190116 0.599192 0.214145
v 0.214145 0.599192 -0.190116
v -0.190116 0.599192 0.785855
v 0.214145 0.599192 1.190116
v 0.785855 0.599192 1.190116
v 1.190116 0.599192 0.785855
v 1.190116 0.599192 0.214145
v 0.785855 0.599192 -0.190116
v 1.437500 0.406250 0.593750
v 1.437500 0.406250 0.406250
v 1.125000 0.406250 0.593750
v 1.125000 0.406250 0.406250
v 1.125000 0.593750 0.593750
v 1.437500 0.593750 0.593750
v 1.437500 0.593750 0.406250
v 1.125000 0.593750 0.406250
v -0.437124 0.406250 0.406250
v -0.437124 0.406250 0.593750
v -0.124624 0.406250 0.406250
v -0.124624 0.406250 0.593750
v -0.124624 0.593750 0.406250
v -0.437124 0.593750 0.406250
v -0.437124 0.593750 0.593750
v -0.124624 0.593750 0.593750
v 0.593938 0.406250 -0.437312
v 0.406438 0.406250 -0.437312
v 0.593938 0.406250 -0.124812
v 0.406438 0.406250 -0.124812
v 0.593938 0.593750 -0.124812
v 0.593938 0.593750 -0.437312
v 0.406438 0.593750 -0.437312
v 0.406438 0.593750 -0.124812
v 0.406438 0.406250 1.437312
v 0.593938 0.406250 1.437312
v 0.406438 0.406250 1.124812
v 0.593938 0.406250 1.124812
v 0.406438 0.593750 1.124812
v 0.406438 0.593750 1.437312
v 0.593938 0.593750 1.437312
v 0.593938 0.593750 1.124812
v 1.402028 0.406250 0.227920
v 1.330275 0.406250 0.054692
v 1.113316 0.406250 0.347509
v 1.041562 0.406250 0.174281
v 1.113316 0.593750 0.347509
v 1.402028 0.593750 0.227920
v 1.330275 0.593750 0.054692
v 1.041562 0.593750 0.174281
v -0.401652 0.406250 0.772080
v -0.329899 0.406250 0.945308
v -0.112940 0.406250 0.652491
v -0.041187 0.406250 0.825719
v -0.112940 0.593750 0.652491
v -0.401652 0.593750 0.772080
v -0.329899 0.593750 0.945308
v -0.041187 0.593750 0.825719
v 0.228108 0.406250 -0.401840
v 0.054880 0.406250 -0.330087
v 0.347696 0.406250 -0.113128
v 0.174469 0.406250 -0.041375
v 0.347696 0.593750 -0.113128
v 0.228108 0.593750 -0.401840
v 0.054880 0.593750 -0.330087
v 0.174469 0.593750 -0.041375
v 0.772268 0.406250 1.401840
v 0.945496 0.406250 1.330087
v 0.652679 0.406250 1.113128
v 0.825907 0.406250 1.041374
v 0.652679 0.593750 1.113128
v 0.772268 0.593750 1.401840
v 0.945496 0.593750 1.330087
v 0.825907 0.593750 1.041374
v 1.229259 0.406250 -0.096489
v 1.096676 0.406250 -0.229071
v 1.008288 0.406250 0.124482
v 0.875705 0.406250 -0.008100
v 1.008288 0.593750 0.124482
v 1.229259 0.593750 -0.096489
v 1.096676 0.593750 -0.229071
v 0.875705 0.593750 -0.008100
v -0.228883 0.406250 1.096488
v -0.096300 0.406250 1.229071
v -0.007912 0.406250 0.875517
v 0.124670 0.406250 1.008100
v -0.007912 0.593750 0.875517
v -0.228883 0.593750 1.096488
v -0.096300 0.593750 1.229071
v 0.124670 0.593750 1.008100
v -0.096301 0.406250 -0.229071
v -0.228883 0.406250 -0.096488
v 0.124670 0.406250 -0.008100
v -0.007912 0.406250 0.124482
v 0.124670 0.593750 -0.008100
v -0.096301 0.593750 -0.229071
v -0.228883 0.593750 -0.096488
v -0.007912 0.593750 0.124482
v 1.096677 0.406250 1.229071
v 1.229259 0.406250 1.096488
v 0.875705 0.406250 1.008100
v 1.008288 0.406250 0.875518
v 0.875705 0.593750 1.008100
v 1.096677 0.593750 1.229071
v 1.229259 0.593750 1.096488
v 1.008288 0.593750 0.875518
v 0.945495 0.406250 -0.330087
v 0.772268 0.406250 -0.401840
v 0.825907 0.406250 -0.041375
v 0.652679 0.406250 -0.113128
v 0.825907 0.593750 -0.041375
v 0.945495 0.593750 -0.330087
v 0.772268 0.593750 -0.401840
v 0.652679 0.593750 -0.113128
v 0.054880 0.406250 1.330087
v 0.228108 0.406250 1.401840
v 0.174469 0.406250 1.041374
v 0.347696 0.406250 1.113127
v 0.174469 0.593750 1.041374
v 0.054880 0.593750 1.330087
v 0.228108 0.593750 1.401840
v 0.347696 0.593750 1.113127
v -0.329899 0.406250 0.054693
v -0.401652 0.406250 0.227920
v -0.041187 0.406250 0.174281
v -0.112940 0.406250 0.347508
v -0.041187 0.593750 0.174281
v -0.329899 0.593750 0.054693
v -0.401652 0.593750 0.227920
v -0.112940 0.593750 0.347508
v 1.330275 0.406250 0.945307
v 1.402028 0.406250 0.772080
v 1.041563 0.406250 0.825719
v 1.113316 0.406250 0.652492
v 1.041563 0.593750 0.825719
v 1.330275 0.593750 0.945307
v 1.402028 0.593750 0.772080
v 1.113316 0.593750 0.652492
v 0.000000 -0.000000 1.000000
v 0.000000 1.000000 1.000000
v 0.000000 -0.000000 -0.000000
v 0.000000 1.000000 -0.000000
v 1.000000 -0.000000 1.000000
v 1.000000 1.000000 1.000000
v 1.000000 -0.000000 -0.000000
v 1.000000 1.000000 -0.000000
v 0.000000 0.375000 1.000000
v 1.000000 0.375000 1.000000
v 0.000000 0.375000 -0.000000
v 1.000000 0.375000 -0.000000
v 0.000000 0.625000 1.000000
v 1.000000 0.625000 1.000000
v 0.000000 0.625000 -0.000000
v 1.000000 0.625000 -0.000000
vn -0.0000 -1.0000 -0.0000
vn -0.0000 1.0000 -0.0000
vn 1.0000 -0.0000 -0.0000
vn -1.0000 -0.0000 -0.0000
vn -0.0000 -0.0000 1.0000
vn -0.0000 -0.0000 -1.0000
vn 0.7071 -0.0000 -0.7071
vn -0.7071 -0.0000 -0.7071
vn -0.7071 -0.0000 0.7071
vn 0.7071 -0.0000 0.7071
vn -0.9239 -0.0000 0.3827
vn 0.9239 -0.0000 -0.3827
vn -0.3827 -0.0000 -0.9239
vn 0.3827 -0.0000 0.9239
vn -0.3827 -0.0000 0.9239
vn 0.3827 -0.0000 -0.9239
vn -0.9239 -0.0000 -0.3827
vn 0.9239 -0.0000 0.3827
vt 0.312500 0.437500
vt 0.500000 0.437500
vt 0.500000 0.625000
vt 0.312500 0.625000
vt 0.500000 0.843750
vt 0.312500 0.843750
vt 0.299790 0.843750
vt 0.012710 0.843750
vt 0.156250 0.500000
vt 0.156250 0.500000
vt 0.000000 0.406250
vt 0.312500 0.406250
vt 0.312500 0.500000
vt 0.000000 0.500000
vt 0.000000 1.000000
vt -0.000000 0.843750
vt 0.093750 0.843750
vt 0.093750 1.000000
vt 0.093750 0.906250
vt 0.187500 0.906250
vt 0.187500 1.000000
vt 0.093750 1.000000
vt 0.093750 0.843750
vt 0.093750 1.000000
vt 0.000000 1.000000
vt -0.000000 0.843750
vt 1.000000 -0.000000
vt 1.000000 0.500000
vt 0.468750 0.500000
vt 0.468750 0.000000
vt 0.000000 0.000000
vt 1.000000 0.000000
vt 1.000000 1.000000
vt 0.000000 1.000000
s 0
usemtl cog_large_main
f 1/1/1 3/2/1 4/3/1 2/4/1
f 5/1/2 6/2/2 8/3/2 7/4/2
f 4/4/3 3/3/3 7/5/3 8/6/3
f 1/4/4 2/3/4 6/5/4 5/6/4
f 2/4/5 4/3/5 8/5/5 6/6/5
f 3/4/6 1/3/6 5/5/6 7/6/6
f 11/7/1 10/8/1 17/9/1
f 13/7/1 12/8/1 17/9/1
f 15/7/1 14/8/1 17/9/1
f 9/7/1 16/8/1 17/9/1
f 26/8/2 20/7/2 18/10/2
f 25/8/2 26/7/2 18/10/2
f 24/8/2 25/7/2 18/10/2
f 22/8/2 23/7/2 18/10/2
f 21/8/2 22/7/2 18/10/2
f 19/8/2 21/7/2 18/10/2
f 10/7/1 9/8/1 17/9/1
f 23/8/2 24/7/2 18/10/2
f 20/8/2 19/7/2 18/10/2
f 15/11/7 16/12/7 26/13/7 25/14/7
f 16/11/6 9/12/6 20/13/6 26/14/6
f 9/11/8 10/12/8 19/13/8 20/14/8
f 10/11/4 11/12/4 21/13/4 19/14/4
f 11/11/9 12/12/9 22/13/9 21/14/9
f 12/7/1 11/8/1 17/9/1
f 12/11/5 13/12/5 23/13/5 22/14/5
f 14/7/1 13/8/1 17/9/1
f 13/11/10 14/12/10 24/13/10 23/14/10
f 16/7/1 15/8/1 17/9/1
f 14/11/3 15/12/3 25/13/3 24/14/3
f 27/15/1 29/16/1 30/17/1 28/18/1
f 32/18/2 33/15/2 34/16/2 31/17/2
f 30/19/4 29/20/4 31/21/4 34/22/4
f 27/19/3 28/20/3 33/21/3 32/22/3
f 28/15/6 30/16/6 34/17/6 33/18/6
f 29/23/5 27/24/5 32/25/5 31/26/5
f 35/15/1 37/16/1 38/17/1 36/18/1
f 40/18/2 41/15/2 42/16/2 39/17/2
f 38/19/3 37/20/3 39/21/3 42/22/3
f 35/19/4 36/20/4 41/21/4 40/22/4
f 36/15/5 38/16/5 42/17/5 41/18/5
f 37/23/6 35/24/6 40/25/6 39/26/6
f 43/15/1 45/16/1 46/17/1 44/18/1
f 48/18/2 49/15/2 50/16/2 47/17/2
f 46/19/5 45/20/5 47/21/5 50/22/5
f 43/19/6 44/20/6 49/21/6 48/22/6
f 44/15/4 46/16/4 50/17/4 49/18/4
f 45/23/3 43/24/3 48/25/3 47/26/3
f 51/15/1 53/16/1 54/17/1 52/18/1
f 56/18/2 57/15/2 58/16/2 55/17/2
f 54/19/6 53/20/6 55/21/6 58/22/6
f 51/19/5 52/20/5 57/21/5 56/22/5
f 52/15/3 54/16/3 58/17/3 57/18/3
f 53/23/4 51/24/4 56/25/4 55/26/4
f 59/15/1 61/16/1 62/17/1 60/18/1
f 64/18/2 65/15/2 66/16/2 63/17/2
f 62/19/11 61/20/11 63/21/11 66/22/11
f 59/19/12 60/20/12 65/21/12 64/22/12
f 60/15/13 62/16/13 66/17/13 65/18/13
f 61/23/14 59/24/14 64/25/14 63/26/14
f 67/15/1 69/16/1 70/17/1 68/18/1
f 72/18/2 73/15/2 74/16/2 71/17/2
f 70/19/12 69/20/12 71/21/12 74/22/12
f 67/19/11 68/20/11 73/21/11 72/22/11
f 68/15/14 70/16/14 74/17/14 73/18/14
f 69/23/13 67/24/13 72/25/13 71/26/13
f 75/15/1 77/16/1 78/17/1 76/18/1
f 80/18/2 81/15/2 82/16/2 79/17/2
f 78/19/14 77/20/14 79/21/14 82/22/14
f 75/19/13 76/20/13 81/21/13 80/22/13
f 76/15/11 78/16/11 82/17/11 81/18/11
f 77/23/12 75/24/12 80/25/12 79/26/12
f 83/15/1 85/16/1 86/17/1 84/18/1
f 88/18/2 89/15/2 90/16/2 87/17/2
f 86/19/13 85/20/13 87/21/13 90/22/13
f 83/19/14 84/20/14 89/21/14 88/22/14
f 84/15/12 86/16/12 90/17/12 89/18/12
f 85/23/11 83/24/11 88/25/11 87/26/11
f 91/15/1 93/16/1 94/17/1 92/18/1
f 96/18/2 97/15/2 98/16/2 95/17/2
f 94/19/9 93/20/9 95/21/9 98/22/9
f 91/19/7 92/20/7 97/21/7 96/22/7
f 92/15/8 94/16/8 98/17/8 97/18/8
f 93/23/10 91/24/10 96/25/10 95/26/10
f 99/15/1 101/16/1 102/17/1 100/18/1
f 104/18/2 105/15/2 106/16/2 103/17/2
f 102/19/7 101/20/7 103/21/7 106/22/7
f 99/19/9 100/20/9 105/21/9 104/22/9
f 100/15/10 102/16/10 106/17/10 105/18/10
f 101/23/8 99/24/8 104/25/8 103/26/8
f 107/15/1 109/16/1 110/17/1 108/18/1
f 112/18/2 113/15/2 114/16/2 111/17/2
f 110/19/10 109/20/10 111/21/10 114/22/10
f 107/19/8 108/20/8 113/21/8 112/22/8
f 108/15/9 110/16/9 114/17/9 113/18/9
f 109/23/7 107/24/7 112/25/7 111/26/7
f 115/15/1 117/16/1 118/17/1 116/18/1
f 120/18/2 121/15/2 122/16/2 119/17/2
f 118/19/8 117/20/8 119/21/8 122/22/8
f 115/19/10 116/20/10 121/21/10 120/22/10
f 116/15/7 118/16/7 122/17/7 121/18/7
f 117/23/9 115/24/9 120/25/9 119/26/9
f 123/15/1 125/16/1 126/17/1 124/18/1
f 128/18/2 129/15/2 130/16/2 127/17/2
f 126/19/15 125/20/15 127/21/15 130/22/15
f 123/19/16 124/20/16 129/21/16 128/22/16
f 124/15/17 126/16/17 130/17/17 129/18/17
f 125/23/18 123/24/18 128/25/18 127/26/18
f 131/15/1 133/16/1 134/17/1 132/18/1
f 136/18/2 137/15/2 138/16/2 135/17/2
f 134/19/16 133/20/16 135/21/16 138/22/16
f 131/19/15 132/20/15 137/21/15 136/22/15
f 132/15/18 134/16/18 138/17/18 137/18/18
f 133/23/17 131/24/17 136/25/17 135/26/17
f 139/15/1 141/16/1 142/17/1 140/18/1
f 144/18/2 145/15/2 146/16/2 143/17/2
f 142/19/18 141/20/18 143/21/18 146/22/18
f 139/19/17 140/20/17 145/21/17 144/22/17
f 140/15/15 142/16/15 146/17/15 145/18/15
f 141/23/16 139/24/16 144/25/16 143/26/16
f 147/15/1 149/16/1 150/17/1 148/18/1
f 152/18/2 153/15/2 154/16/2 151/17/2
f 150/19/17 149/20/17 151/21/17 154/22/17
f 147/19/18 148/20/18 153/21/18 152/22/18
f 148/15/16 150/16/16 154/17/16 153/18/16
f 149/23/15 147/24/15 152/25/15 151/26/15
usemtl cube_top
f 157/31/1 161/32/1 159/33/1 155/34/1
f 162/31/2 158/32/2 156/33/2 160/34/2
usemtl cube_side
f 155/27/4 156/28/4 158/29/4 157/30/4
f 157/27/6 158/28/6 162/29/6 161/30/6
f 161/27/3 162/28/3 160/29/3 159/30/3
f 159/27/5 160/28/5 156/29/5 155/30/5
usemtl cube_inside
f 163/31/2 164/32/2 166/33/2 165/34/2
f 167/31/2 168/32/2 170/33/2 169/34/2
