# Blender 4.0.2
# www.blender.org
mtllib custom_encased_cogwheel.mtl
o encased_small_cog
v 0.000000 -0.000000 1.000000
v 0.000000 1.000000 1.000000
v 0.000000 -0.000000 -0.000000
v 0.000000 1.000000 -0.000000
v 1.000000 -0.000000 1.000000
v 1.000000 1.000000 1.000000
v 1.000000 -0.000000 -0.000000
v 1.000000 1.000000 -0.000000
v 0.312500 0.603125 0.312500
v 0.312500 0.603125 0.687500
v 0.687500 0.603125 0.312500
v 0.687500 0.603125 0.687500
v 0.312500 0.665625 0.312500
v 0.312500 0.665625 0.687500
v 0.687500 0.665625 0.312500
v 0.687500 0.665625 0.687500
v 0.687500 0.406250 0.406250
v 0.687500 0.406250 0.593750
v 1.062500 0.406250 0.406250
v 1.062500 0.406250 0.593750
v 0.687500 0.593750 0.406250
v 0.687500 0.593750 0.593750
v 1.062500 0.593750 0.406250
v 1.062500 0.593750 0.593750
v -0.062500 0.406250 0.406250
v -0.062500 0.406250 0.593750
v 0.312500 0.406250 0.406250
v 0.312500 0.406250 0.593750
v -0.062500 0.593750 0.406250
v -0.062500 0.593750 0.593750
v 0.312500 0.593750 0.406250
v 0.312500 0.593750 0.593750
v 0.406250 0.406250 0.312500
v 0.593750 0.406250 0.312500
v 0.406250 0.406250 -0.062500
v 0.593750 0.406250 -0.062500
v 0.406250 0.593750 0.312500
v 0.593750 0.593750 0.312500
v 0.406250 0.593750 -0.062500
v 0.593750 0.593750 -0.062500
v 0.406250 0.406250 1.062500
v 0.593750 0.406250 1.062500
v 0.406250 0.406250 0.687500
v 0.593750 0.406250 0.687500
v 0.406250 0.593750 1.062500
v 0.593750 0.593750 1.062500
v 0.406250 0.593750 0.687500
v 0.593750 0.593750 0.687500
v 0.566291 0.406250 0.301126
v 0.698874 0.406250 0.433709
v 0.831456 0.406250 0.035961
v 0.964039 0.406250 0.168543
v 0.566291 0.593750 0.301126
v 0.698874 0.593750 0.433709
v 0.831456 0.593750 0.035961
v 0.964039 0.593750 0.168543
v 0.035961 0.406250 0.831456
v 0.168544 0.406250 0.964039
v 0.301126 0.406250 0.566291
v 0.433709 0.406250 0.698874
v 0.035961 0.593750 0.831456
v 0.168544 0.593750 0.964039
v 0.301126 0.593750 0.566291
v 0.433709 0.593750 0.698874
v 0.301126 0.406250 0.433709
v 0.433709 0.406250 0.301126
v 0.035961 0.406250 0.168544
v 0.168544 0.406250 0.035961
v 0.301126 0.593750 0.433709
v 0.433709 0.593750 0.301126
v 0.035961 0.593750 0.168544
v 0.168544 0.593750 0.035961
v 0.831456 0.406250 0.964039
v 0.964039 0.406250 0.831456
v 0.566291 0.406250 0.698874
v 0.698874 0.406250 0.566291
v 0.831456 0.593750 0.964039
v 0.964039 0.593750 0.831456
v 0.566291 0.593750 0.698874
v 0.698874 0.593750 0.566291
v 0.869552 0.396875 0.346926
v 0.653073 0.396875 0.130448
v 0.346927 0.396875 0.130448
v 0.130448 0.396875 0.346927
v 0.130448 0.396875 0.653073
v 0.346927 0.396875 0.869552
v 0.653074 0.396875 0.869552
v 0.869552 0.396875 0.653073
v 0.500000 0.396875 0.500000
v 0.653073 0.603125 0.130448
v 0.869552 0.603125 0.346926
v 0.346927 0.603125 0.130448
v 0.130448 0.603125 0.346927
v 0.130448 0.603125 0.653073
v 0.346927 0.603125 0.869552
v 0.653074 0.603125 0.869552
v 0.869552 0.603125 0.653073
v 0.500000 0.603125 0.500000
v 0.312500 0.334375 0.312500
v 0.312500 0.334375 0.687500
v 0.687500 0.334375 0.312500
v 0.687500 0.334375 0.687500
v 0.312500 0.396875 0.312500
v 0.312500 0.396875 0.687500
v 0.687500 0.396875 0.312500
v 0.687500 0.396875 0.687500
v 0.000000 0.375000 1.000000
v 1.000000 0.375000 1.000000
v 0.000000 0.375000 -0.000000
v 1.000000 0.375000 -0.000000
v 0.000000 0.625000 1.000000
v 1.000000 0.625000 1.000000
v 0.000000 0.625000 -0.000000
v 1.000000 0.625000 -0.000000
vn -1.0000 -0.0000 -0.0000
vn -0.0000 -0.0000 -1.0000
vn 1.0000 -0.0000 -0.0000
vn -0.0000 -0.0000 1.0000
vn -0.0000 -1.0000 -0.0000
vn -0.0000 1.0000 -0.0000
vn 0.7071 -0.0000 0.7071
vn -0.7071 -0.0000 -0.7071
vn 0.7071 -0.0000 -0.7071
vn -0.7071 -0.0000 0.7071
vt 1.000000 -0.000000
vt 1.000000 1.000000
vt 0.000000 1.000000
vt -0.000000 0.000000
vt 0.000000 0.000000
vt 1.000000 0.000000
vt 0.312500 0.250000
vt 0.687500 0.250000
vt 0.687500 0.625000
vt 0.312500 0.625000
vt 0.687500 0.687500
vt 0.312500 0.687500
vt 0.187500 0.625000
vt 0.187500 1.000000
vt 0.000000 1.000000
vt -0.000000 0.625000
vt 0.000000 0.625000
vt 0.187500 0.625000
vt 0.187500 1.000000
vt 0.187500 0.812500
vt 0.375000 0.812500
vt 0.375000 1.000000
vt 0.157227 0.250000
vt 0.312500 0.625000
vt 0.313151 0.625000
vt 0.000651 0.625000
vt 0.155924 0.250000
vt 0.000000 0.062500
vt 0.312500 0.062500
vt 0.000000 0.250000
s 0
usemtl cube_top
f 3/5/5 7/6/5 5/2/5 1/3/5
f 8/5/6 4/6/6 2/2/6 6/3/6
usemtl cube_side
f 1/1/1 2/2/1 4/3/1 3/4/1
f 3/1/2 4/2/2 8/3/2 7/4/2
f 7/1/3 8/2/3 6/3/3 5/4/3
f 5/1/4 6/2/4 2/3/4 1/4/4
usemtl cog_main
f 9/7/5 11/8/5 12/9/5 10/10/5
f 13/7/6 14/8/6 16/9/6 15/10/6
f 12/10/3 11/9/3 15/11/3 16/12/3
f 9/10/1 10/9/1 14/11/1 13/12/1
f 10/10/4 12/9/4 16/11/4 14/12/4
f 11/10/2 9/9/2 13/11/2 15/12/2
f 17/13/5 19/14/5 20/15/5 18/16/5
f 21/17/6 22/18/6 24/19/6 23/3/6
f 18/13/4 20/14/4 24/15/4 22/16/4
f 19/3/2 17/17/2 21/18/2 23/19/2
f 20/20/3 19/21/3 23/22/3 24/19/3
f 17/20/1 18/21/1 22/22/1 21/19/1
f 25/3/5 27/17/5 28/18/5 26/19/5
f 29/14/6 30/15/6 32/16/6 31/13/6
f 26/3/4 28/17/4 32/18/4 30/19/4
f 27/13/2 25/14/2 29/15/2 31/16/2
f 28/20/3 27/21/3 31/22/3 32/19/3
f 25/20/1 26/21/1 30/22/1 29/19/1
f 33/13/5 35/14/5 36/15/5 34/16/5
f 37/17/6 38/18/6 40/19/6 39/3/6
f 34/13/3 36/14/3 40/15/3 38/16/3
f 35/3/1 33/17/1 37/18/1 39/19/1
f 36/20/2 35/21/2 39/22/2 40/19/2
f 33/20/4 34/21/4 38/22/4 37/19/4
f 41/3/5 43/17/5 44/18/5 42/19/5
f 45/14/6 46/15/6 48/16/6 47/13/6
f 42/3/3 44/17/3 48/18/3 46/19/3
f 43/13/1 41/14/1 45/15/1 47/16/1
f 44/20/2 43/21/2 47/22/2 48/19/2
f 41/20/4 42/21/4 46/22/4 45/19/4
f 49/13/5 51/14/5 52/15/5 50/16/5
f 53/17/6 54/18/6 56/19/6 55/3/6
f 50/13/7 52/14/7 56/15/7 54/16/7
f 51/3/8 49/17/8 53/18/8 55/19/8
f 52/20/9 51/21/9 55/22/9 56/19/9
f 49/20/10 50/21/10 54/22/10 53/19/10
f 57/3/5 59/17/5 60/18/5 58/19/5
f 61/14/6 62/15/6 64/16/6 63/13/6
f 58/3/7 60/17/7 64/18/7 62/19/7
f 59/13/8 57/14/8 61/15/8 63/16/8
f 60/20/9 59/21/9 63/22/9 64/19/9
f 57/20/10 58/21/10 62/22/10 61/19/10
f 65/13/5 67/14/5 68/15/5 66/16/5
f 69/17/6 70/18/6 72/19/6 71/3/6
f 66/13/9 68/14/9 72/15/9 70/16/9
f 67/3/10 65/17/10 69/18/10 71/19/10
f 68/20/8 67/21/8 71/22/8 72/19/8
f 65/20/7 66/21/7 70/22/7 69/19/7
f 73/3/5 75/17/5 76/18/5 74/19/5
f 77/14/6 78/15/6 80/16/6 79/13/6
f 74/3/9 76/17/9 80/18/9 78/19/9
f 75/13/10 73/14/10 77/15/10 79/16/10
f 76/20/8 75/21/8 79/22/8 80/19/8
f 73/20/7 74/21/7 78/22/7 77/19/7
f 81/17/5 89/23/5 82/24/5
f 82/17/5 89/23/5 83/24/5
f 83/17/5 89/23/5 84/24/5
f 84/17/5 89/23/5 85/24/5
f 85/17/5 89/23/5 86/24/5
f 86/17/5 89/23/5 87/24/5
f 87/17/5 89/23/5 88/24/5
f 88/17/5 89/23/5 81/24/5
f 91/25/6 90/26/6 98/27/6
f 90/25/6 92/26/6 98/27/6
f 92/25/6 93/26/6 98/27/6
f 93/25/6 94/26/6 98/27/6
f 94/25/6 95/26/6 98/27/6
f 95/25/6 96/26/6 98/27/6
f 96/25/6 97/26/6 98/27/6
f 97/25/6 91/26/6 98/27/6
f 83/28/8 84/29/8 93/7/8 92/30/8
f 81/28/9 82/29/9 90/7/9 91/30/9
f 88/28/3 81/29/3 91/7/3 97/30/3
f 86/28/4 87/29/4 96/7/4 95/30/4
f 84/28/1 85/29/1 94/7/1 93/30/1
f 82/28/2 83/29/2 92/7/2 90/30/2
f 87/28/7 88/29/7 97/7/7 96/30/7
f 85/28/10 86/29/10 95/7/10 94/30/10
f 99/7/5 101/8/5 102/9/5 100/10/5
f 103/7/6 104/8/6 106/9/6 105/10/6
f 102/10/3 101/9/3 105/11/3 106/12/3
f 99/10/1 100/9/1 104/11/1 103/12/1
f 100/10/4 102/9/4 106/11/4 104/12/4
f 101/10/2 99/9/2 103/11/2 105/12/2
usemtl cube_inside
f 107/5/6 108/6/6 110/2/6 109/3/6
f 111/5/6 112/6/6 114/2/6 113/3/6
