# Blender 4.0.2
# www.blender.org
mtllib encased.mtl
o encased_large_brass
v 0.312500 0.281250 0.312500
v 0.312500 0.281250 0.687500
v 0.687500 0.281250 0.312500
v 0.687500 0.281250 0.687500
v 0.312500 0.718750 0.312500
v 0.312500 0.718750 0.687500
v 0.687500 0.718750 0.312500
v 0.687500 0.718750 0.687500
v 0.214145 0.400808 -0.190116
v -0.190116 0.400808 0.214145
v -0.190116 0.400808 0.785855
v 0.214145 0.400808 1.190116
v 0.785855 0.400808 1.190116
v 1.190116 0.400808 0.785855
v 1.190116 0.400808 0.214145
v 0.785855 0.400808 -0.190116
v 0.065116 0.400808 0.319865
v 0.319865 0.400808 0.065116
v 0.065116 0.400808 0.680135
v 0.319865 0.400808 0.934884
v 0.680135 0.400808 0.934884
v 0.934884 0.400808 0.680135
v 0.934884 0.400808 0.319865
v 0.680135 0.400808 0.065116
v 0.065116 0.599192 0.319865
v 0.319865 0.599192 0.065116
v 0.065116 0.599192 0.680135
v 0.319865 0.599192 0.934884
v 0.680135 0.599192 0.934884
v 0.934884 0.599192 0.680135
v 0.934884 0.599192 0.319865
v 0.680135 0.599192 0.065116
v -0.190116 0.599192 0.214145
v 0.214145 0.599192 -0.190116
v -0.190116 0.599192 0.785855
v 0.214145 0.599192 1.190116
v 0.785855 0.599192 1.190116
v 1.190116 0.599192 0.785855
v 1.190116 0.599192 0.214145
v 0.785855 0.599192 -0.190116
v 1.000000 0.406250 0.593750
v 1.000000 0.406250 0.406250
v 0.000000 0.406250 0.593750
v 0.000000 0.406250 0.406250
v 1.000000 0.406250 0.406250
v 0.000000 0.406250 0.406250
v 0.000000 0.593750 0.593750
v 1.000000 0.593750 0.593750
v 1.000000 0.593750 0.406250
v 0.000000 0.593750 0.406250
v 1.000000 0.593750 0.406250
v 0.000000 0.593750 0.406250
v 0.831190 0.406250 0.113862
v 0.668810 0.406250 0.020112
v 0.331190 0.406250 0.979888
v 0.168810 0.406250 0.886138
v 0.668810 0.406250 0.020112
v 0.168810 0.406250 0.886138
v 0.331190 0.593750 0.979888
v 0.831190 0.593750 0.113862
v 0.668810 0.593750 0.020112
v 0.168810 0.593750 0.886138
v 0.668810 0.593750 0.020112
v 0.168810 0.593750 0.886138
v 0.331190 0.406250 0.020112
v 0.168810 0.406250 0.113862
v 0.831190 0.406250 0.886138
v 0.668811 0.406250 0.979888
v 0.168810 0.406250 0.113862
v 0.668811 0.406250 0.979888
v 0.831190 0.593750 0.886138
v 0.331190 0.593750 0.020112
v 0.168810 0.593750 0.113862
v 0.668811 0.593750 0.979888
v 0.168810 0.593750 0.113862
v 0.668811 0.593750 0.979888
v 1.437500 0.406250 0.593750
v 1.437500 0.406250 0.406250
v 1.125000 0.406250 0.593750
v 1.125000 0.406250 0.406250
v 1.125000 0.593750 0.593750
v 1.437500 0.593750 0.593750
v 1.437500 0.593750 0.406250
v 1.125000 0.593750 0.406250
v -0.437124 0.406250 0.406250
v -0.437124 0.406250 0.593750
v -0.124624 0.406250 0.406250
v -0.124624 0.406250 0.593750
v -0.124624 0.593750 0.406250
v -0.437124 0.593750 0.406250
v -0.437124 0.593750 0.593750
v -0.124624 0.593750 0.593750
v 0.593938 0.406250 -0.437312
v 0.406438 0.406250 -0.437312
v 0.593938 0.406250 -0.124812
v 0.406438 0.406250 -0.124812
v 0.593938 0.593750 -0.124812
v 0.593938 0.593750 -0.437312
v 0.406438 0.593750 -0.437312
v 0.406438 0.593750 -0.124812
v 0.406438 0.406250 1.437312
v 0.593938 0.406250 1.437312
v 0.406438 0.406250 1.124812
v 0.593938 0.406250 1.124812
v 0.406438 0.593750 1.124812
v 0.406438 0.593750 1.437312
v 0.593938 0.593750 1.437312
v 0.593938 0.593750 1.124812
v 1.402028 0.406250 0.227920
v 1.330275 0.406250 0.054692
v 1.113316 0.406250 0.347509
v 1.041562 0.406250 0.174281
v 1.113316 0.593750 0.347509
v 1.402028 0.593750 0.227920
v 1.330275 0.593750 0.054692
v 1.041562 0.593750 0.174281
v -0.401652 0.406250 0.772080
v -0.329899 0.406250 0.945308
v -0.112940 0.406250 0.652491
v -0.041187 0.406250 0.825719
v -0.112940 0.593750 0.652491
v -0.401652 0.593750 0.772080
v -0.329899 0.593750 0.945308
v -0.041187 0.593750 0.825719
v 0.228108 0.406250 -0.401840
v 0.054880 0.406250 -0.330087
v 0.347696 0.406250 -0.113128
v 0.174469 0.406250 -0.041375
v 0.347696 0.593750 -0.113128
v 0.228108 0.593750 -0.401840
v 0.054880 0.593750 -0.330087
v 0.174469 0.593750 -0.041375
v 0.772268 0.406250 1.401840
v 0.945496 0.406250 1.330087
v 0.652679 0.406250 1.113128
v 0.825907 0.406250 1.041374
v 0.652679 0.593750 1.113128
v 0.772268 0.593750 1.401840
v 0.945496 0.593750 1.330087
v 0.825907 0.593750 1.041374
v 1.229259 0.406250 -0.096489
v 1.096676 0.406250 -0.229071
v 1.008288 0.406250 0.124482
v 0.875705 0.406250 -0.008100
v 1.008288 0.593750 0.124482
v 1.229259 0.593750 -0.096489
v 1.096676 0.593750 -0.229071
v 0.875705 0.593750 -0.008100
v -0.228883 0.406250 1.096488
v -0.096300 0.406250 1.229071
v -0.007912 0.406250 0.875517
v 0.124670 0.406250 1.008100
v -0.007912 0.593750 0.875517
v -0.228883 0.593750 1.096488
v -0.096300 0.593750 1.229071
v 0.124670 0.593750 1.008100
v -0.096301 0.406250 -0.229071
v -0.228883 0.406250 -0.096488
v 0.124670 0.406250 -0.008100
v -0.007912 0.406250 0.124482
v 0.124670 0.593750 -0.008100
v -0.096301 0.593750 -0.229071
v -0.228883 0.593750 -0.096488
v -0.007912 0.593750 0.124482
v 1.096677 0.406250 1.229071
v 1.229259 0.406250 1.096488
v 0.875705 0.406250 1.008100
v 1.008288 0.406250 0.875518
v 0.875705 0.593750 1.008100
v 1.096677 0.593750 1.229071
v 1.229259 0.593750 1.096488
v 1.008288 0.593750 0.875518
v 0.945495 0.406250 -0.330087
v 0.772268 0.406250 -0.401840
v 0.825907 0.406250 -0.041375
v 0.652679 0.406250 -0.113128
v 0.825907 0.593750 -0.041375
v 0.945495 0.593750 -0.330087
v 0.772268 0.593750 -0.401840
v 0.652679 0.593750 -0.113128
v 0.054880 0.406250 1.330087
v 0.228108 0.406250 1.401840
v 0.174469 0.406250 1.041374
v 0.347696 0.406250 1.113127
v 0.174469 0.593750 1.041374
v 0.054880 0.593750 1.330087
v 0.228108 0.593750 1.401840
v 0.347696 0.593750 1.113127
v -0.329899 0.406250 0.054693
v -0.401652 0.406250 0.227920
v -0.041187 0.406250 0.174281
v -0.112940 0.406250 0.347508
v -0.041187 0.593750 0.174281
v -0.329899 0.593750 0.054693
v -0.401652 0.593750 0.227920
v -0.112940 0.593750 0.347508
v 1.330275 0.406250 0.945307
v 1.402028 0.406250 0.772080
v 1.041563 0.406250 0.825719
v 1.113316 0.406250 0.652492
v 1.041563 0.593750 0.825719
v 1.330275 0.593750 0.945307
v 1.402028 0.593750 0.772080
v 1.113316 0.593750 0.652492
v 0.000000 -0.000000 1.000000
v 0.000000 1.000000 1.000000
v 0.000000 -0.000000 -0.000000
v 0.000000 1.000000 -0.000000
v 1.000000 -0.000000 1.000000
v 1.000000 1.000000 1.000000
v 1.000000 -0.000000 -0.000000
v 1.000000 1.000000 -0.000000
v 0.000000 0.375000 1.000000
v 1.000000 0.375000 1.000000
v 0.000000 0.375000 -0.000000
v 1.000000 0.375000 -0.000000
v 0.000000 0.625000 1.000000
v 1.000000 0.625000 1.000000
v 0.000000 0.625000 -0.000000
v 1.000000 0.625000 -0.000000
vn -0.0000 -1.0000 -0.0000
vn -0.0000 1.0000 -0.0000
vn 1.0000 -0.0000 -0.0000
vn -1.0000 -0.0000 -0.0000
vn -0.0000 -0.0000 1.0000
vn -0.0000 -0.0000 -1.0000
vn -0.7071 -0.0000 0.7071
vn 0.7071 -0.0000 -0.7071
vn 0.7071 -0.0000 0.7071
vn -0.7071 -0.0000 -0.7071
vn -0.8660 -0.0000 -0.5000
vn 0.8660 -0.0000 0.5000
vn -0.5000 -0.0000 0.8660
vn 0.5000 -0.0000 -0.8660
vn -0.8660 -0.0000 0.5000
vn 0.8660 -0.0000 -0.5000
vn 0.5000 -0.0000 0.8660
vn -0.5000 -0.0000 -0.8660
vn -0.9239 -0.0000 0.3827
vn 0.9239 -0.0000 -0.3827
vn -0.3827 -0.0000 -0.9239
vn 0.3827 -0.0000 0.9239
vn -0.3827 -0.0000 0.9239
vn 0.3827 -0.0000 -0.9239
vn -0.9239 -0.0000 -0.3827
vn 0.9239 -0.0000 0.3827
vt 0.312500 0.437500
vt 0.500000 0.437500
vt 0.500000 0.625000
vt 0.312500 0.625000
vt 0.500000 0.843750
vt 0.312500 0.843750
vt 0.247188 0.718750
vt 0.300000 0.843750
vt 0.012500 0.843750
vt 0.065312 0.718750
vt 0.065306 0.718750
vt 0.247194 0.718750
vt 0.296986 0.843750
vt 0.015514 0.843750
vt 0.065312 0.625000
vt 0.247188 0.625000
vt 0.011636 0.406250
vt 0.300864 0.406250
vt 0.300864 0.500000
vt 0.011636 0.500000
vt 0.000000 0.312500
vt 0.500000 0.312500
vt 0.500000 0.406250
vt 0.000000 0.406250
vt 0.000000 0.000000
vt 1.000000 0.000000
vt 1.000000 1.000000
vt 0.000000 1.000000
vt 0.000000 0.218750
vt 0.500000 0.218750
vt 0.000000 1.000000
vt -0.000000 0.843750
vt 0.093750 0.843750
vt 0.093750 1.000000
vt 0.093750 0.906250
vt 0.187500 0.906250
vt 0.187500 1.000000
vt 0.093750 1.000000
vt 0.093750 0.843750
vt 0.093750 1.000000
vt 0.000000 1.000000
vt -0.000000 0.843750
vt 1.000000 -0.000000
vt 1.000000 0.500000
vt 0.468750 0.500000
vt 0.468750 0.000000
s 0
usemtl cog_main
f 1/1/1 3/2/1 4/3/1 2/4/1
f 5/1/2 6/2/2 8/3/2 7/4/2
f 4/4/3 3/3/3 7/5/3 8/6/3
f 1/4/4 2/3/4 6/5/4 5/6/4
f 2/4/5 4/3/5 8/5/5 6/6/5
f 3/4/6 1/3/6 5/5/6 7/6/6
f 17/7/1 10/8/1 9/9/1 18/10/1
f 19/7/1 11/8/1 10/9/1 17/10/1
f 20/7/1 12/8/1 11/9/1 19/10/1
f 21/7/1 13/8/1 12/9/1 20/10/1
f 22/7/1 14/8/1 13/9/1 21/10/1
f 23/7/1 15/8/1 14/9/1 22/10/1
f 24/7/1 16/8/1 15/9/1 23/10/1
f 18/7/1 9/8/1 16/9/1 24/10/1
f 25/11/2 26/12/2 34/13/2 33/14/2
f 27/11/2 25/12/2 33/13/2 35/14/2
f 28/11/2 27/12/2 35/13/2 36/14/2
f 29/11/2 28/12/2 36/13/2 37/14/2
f 30/11/2 29/12/2 37/13/2 38/14/2
f 31/11/2 30/12/2 38/13/2 39/14/2
f 32/11/2 31/12/2 39/13/2 40/14/2
f 26/11/2 32/12/2 40/13/2 34/14/2
f 24/15/7 23/16/7 31/7/7 32/10/7
f 15/17/8 16/18/8 40/19/8 39/20/8
f 18/15/5 24/16/5 32/7/5 26/10/5
f 17/15/9 18/16/9 26/7/9 25/10/9
f 16/17/6 9/18/6 34/19/6 40/20/6
f 9/17/10 10/18/10 33/19/10 34/20/10
f 19/15/3 17/16/3 25/7/3 27/10/3
f 10/17/4 11/18/4 35/19/4 33/20/4
f 20/15/8 19/16/8 27/7/8 28/10/8
f 11/17/7 12/18/7 36/19/7 35/20/7
f 21/15/6 20/16/6 28/7/6 29/10/6
f 12/17/5 13/18/5 37/19/5 36/20/5
f 22/15/10 21/16/10 29/7/10 30/10/10
f 13/17/9 14/18/9 38/19/9 37/20/9
f 23/15/4 22/16/4 30/7/4 31/10/4
f 14/17/3 15/18/3 39/19/3 38/20/3
f 41/21/1 43/22/1 44/23/1 42/24/1
f 44/21/2 46/22/2 45/23/2 42/24/2
f 48/22/2 49/23/2 50/24/2 47/21/2
f 50/21/2 49/22/2 51/23/2 52/24/2
f 42/25/2 45/26/2 51/27/2 49/28/2
f 45/29/6 46/30/6 52/22/6 51/21/6
f 43/29/5 41/30/5 48/22/5 47/21/5
f 46/25/2 44/26/2 50/27/2 52/28/2
f 44/25/4 43/26/4 47/27/4 50/28/4
f 41/25/3 42/26/3 49/27/3 48/28/3
f 53/21/1 55/22/1 56/23/1 54/24/1
f 56/21/2 58/22/2 57/23/2 54/24/2
f 60/22/2 61/23/2 62/24/2 59/21/2
f 62/21/2 61/22/2 63/23/2 64/24/2
f 54/25/2 57/26/2 63/27/2 61/28/2
f 57/29/11 58/30/11 64/22/11 63/21/11
f 55/29/12 53/30/12 60/22/12 59/21/12
f 58/25/2 56/26/2 62/27/2 64/28/2
f 56/25/13 55/26/13 59/27/13 62/28/13
f 53/25/14 54/26/14 61/27/14 60/28/14
f 65/21/1 67/22/1 68/23/1 66/24/1
f 68/21/2 70/22/2 69/23/2 66/24/2
f 72/22/2 73/23/2 74/24/2 71/21/2
f 74/21/2 73/22/2 75/23/2 76/24/2
f 66/25/2 69/26/2 75/27/2 73/28/2
f 69/29/15 70/30/15 76/22/15 75/21/15
f 67/29/16 65/30/16 72/22/16 71/21/16
f 70/25/2 68/26/2 74/27/2 76/28/2
f 68/25/17 67/26/17 71/27/17 74/28/17
f 65/25/18 66/26/18 73/27/18 72/28/18
f 77/31/1 79/32/1 80/33/1 78/34/1
f 82/34/2 83/31/2 84/32/2 81/33/2
f 80/35/4 79/36/4 81/37/4 84/38/4
f 77/35/3 78/36/3 83/37/3 82/38/3
f 78/31/6 80/32/6 84/33/6 83/34/6
f 79/39/5 77/40/5 82/41/5 81/42/5
f 85/31/1 87/32/1 88/33/1 86/34/1
f 90/34/2 91/31/2 92/32/2 89/33/2
f 88/35/3 87/36/3 89/37/3 92/38/3
f 85/35/4 86/36/4 91/37/4 90/38/4
f 86/31/5 88/32/5 92/33/5 91/34/5
f 87/39/6 85/40/6 90/41/6 89/42/6
f 93/31/1 95/32/1 96/33/1 94/34/1
f 98/34/2 99/31/2 100/32/2 97/33/2
f 96/35/5 95/36/5 97/37/5 100/38/5
f 93/35/6 94/36/6 99/37/6 98/38/6
f 94/31/4 96/32/4 100/33/4 99/34/4
f 95/39/3 93/40/3 98/41/3 97/42/3
f 101/31/1 103/32/1 104/33/1 102/34/1
f 106/34/2 107/31/2 108/32/2 105/33/2
f 104/35/6 103/36/6 105/37/6 108/38/6
f 101/35/5 102/36/5 107/37/5 106/38/5
f 102/31/3 104/32/3 108/33/3 107/34/3
f 103/39/4 101/40/4 106/41/4 105/42/4
f 109/31/1 111/32/1 112/33/1 110/34/1
f 114/34/2 115/31/2 116/32/2 113/33/2
f 112/35/19 111/36/19 113/37/19 116/38/19
f 109/35/20 110/36/20 115/37/20 114/38/20
f 110/31/21 112/32/21 116/33/21 115/34/21
f 111/39/22 109/40/22 114/41/22 113/42/22
f 117/31/1 119/32/1 120/33/1 118/34/1
f 122/34/2 123/31/2 124/32/2 121/33/2
f 120/35/20 119/36/20 121/37/20 124/38/20
f 117/35/19 118/36/19 123/37/19 122/38/19
f 118/31/22 120/32/22 124/33/22 123/34/22
f 119/39/21 117/40/21 122/41/21 121/42/21
f 125/31/1 127/32/1 128/33/1 126/34/1
f 130/34/2 131/31/2 132/32/2 129/33/2
f 128/35/22 127/36/22 129/37/22 132/38/22
f 125/35/21 126/36/21 131/37/21 130/38/21
f 126/31/19 128/32/19 132/33/19 131/34/19
f 127/39/20 125/40/20 130/41/20 129/42/20
f 133/31/1 135/32/1 136/33/1 134/34/1
f 138/34/2 139/31/2 140/32/2 137/33/2
f 136/35/21 135/36/21 137/37/21 140/38/21
f 133/35/22 134/36/22 139/37/22 138/38/22
f 134/31/20 136/32/20 140/33/20 139/34/20
f 135/39/19 133/40/19 138/41/19 137/42/19
f 141/31/1 143/32/1 144/33/1 142/34/1
f 146/34/2 147/31/2 148/32/2 145/33/2
f 144/35/7 143/36/7 145/37/7 148/38/7
f 141/35/8 142/36/8 147/37/8 146/38/8
f 142/31/10 144/32/10 148/33/10 147/34/10
f 143/39/9 141/40/9 146/41/9 145/42/9
f 149/31/1 151/32/1 152/33/1 150/34/1
f 154/34/2 155/31/2 156/32/2 153/33/2
f 152/35/8 151/36/8 153/37/8 156/38/8
f 149/35/7 150/36/7 155/37/7 154/38/7
f 150/31/9 152/32/9 156/33/9 155/34/9
f 151/39/10 149/40/10 154/41/10 153/42/10
f 157/31/1 159/32/1 160/33/1 158/34/1
f 162/34/2 163/31/2 164/32/2 161/33/2
f 160/35/9 159/36/9 161/37/9 164/38/9
f 157/35/10 158/36/10 163/37/10 162/38/10
f 158/31/7 160/32/7 164/33/7 163/34/7
f 159/39/8 157/40/8 162/41/8 161/42/8
f 165/31/1 167/32/1 168/33/1 166/34/1
f 170/34/2 171/31/2 172/32/2 169/33/2
f 168/35/10 167/36/10 169/37/10 172/38/10
f 165/35/9 166/36/9 171/37/9 170/38/9
f 166/31/8 168/32/8 172/33/8 171/34/8
f 167/39/7 165/40/7 170/41/7 169/42/7
f 173/31/1 175/32/1 176/33/1 174/34/1
f 178/34/2 179/31/2 180/32/2 177/33/2
f 176/35/23 175/36/23 177/37/23 180/38/23
f 173/35/24 174/36/24 179/37/24 178/38/24
f 174/31/25 176/32/25 180/33/25 179/34/25
f 175/39/26 173/40/26 178/41/26 177/42/26
f 181/31/1 183/32/1 184/33/1 182/34/1
f 186/34/2 187/31/2 188/32/2 185/33/2
f 184/35/24 183/36/24 185/37/24 188/38/24
f 181/35/23 182/36/23 187/37/23 186/38/23
f 182/31/26 184/32/26 188/33/26 187/34/26
f 183/39/25 181/40/25 186/41/25 185/42/25
f 189/31/1 191/32/1 192/33/1 190/34/1
f 194/34/2 195/31/2 196/32/2 193/33/2
f 192/35/26 191/36/26 193/37/26 196/38/26
f 189/35/25 190/36/25 195/37/25 194/38/25
f 190/31/23 192/32/23 196/33/23 195/34/23
f 191/39/24 189/40/24 194/41/24 193/42/24
f 197/31/1 199/32/1 200/33/1 198/34/1
f 202/34/2 203/31/2 204/32/2 201/33/2
f 200/35/25 199/36/25 201/37/25 204/38/25
f 197/35/26 198/36/26 203/37/26 202/38/26
f 198/31/24 200/32/24 204/33/24 203/34/24
f 199/39/23 197/40/23 202/41/23 201/42/23
usemtl cube_top
f 207/25/1 211/26/1 209/27/1 205/28/1
f 212/25/2 208/26/2 206/27/2 210/28/2
usemtl cube_side
f 205/43/4 206/44/4 208/45/4 207/46/4
f 207/43/6 208/44/6 212/45/6 211/46/6
f 211/43/3 212/44/3 210/45/3 209/46/3
f 209/43/5 210/44/5 206/45/5 205/46/5
usemtl cube_inside
f 213/25/2 214/26/2 216/27/2 215/28/2
f 217/25/2 218/26/2 220/27/2 219/28/2
