# Blender 4.0.2
# www.blender.org
mtllib model.mtl
o large_brass_cog_with_shaft
v 0.375000 0.000000 0.375000
v 0.375000 0.000000 0.625000
v 0.625000 0.000000 0.375000
v 0.625000 0.000000 0.625000
v 0.375000 1.000000 0.375000
v 0.375000 1.000000 0.625000
v 0.625000 1.000000 0.375000
v 0.625000 1.000000 0.625000
v 0.312500 0.281250 0.312500
v 0.312500 0.281250 0.687500
v 0.687500 0.281250 0.312500
v 0.687500 0.281250 0.687500
v 0.312500 0.718750 0.312500
v 0.312500 0.718750 0.687500
v 0.687500 0.718750 0.312500
v 0.687500 0.718750 0.687500
v 0.214145 0.400808 -0.190116
v -0.190116 0.400808 0.214145
v -0.190116 0.400808 0.785855
v 0.214145 0.400808 1.190116
v 0.785855 0.400808 1.190116
v 1.190116 0.400808 0.785855
v 1.190116 0.400808 0.214145
v 0.785855 0.400808 -0.190116
v 0.065116 0.400808 0.319865
v 0.319865 0.400808 0.065116
v 0.065116 0.400808 0.680135
v 0.319865 0.400808 0.934884
v 0.680135 0.400808 0.934884
v 0.934884 0.400808 0.680135
v 0.934884 0.400808 0.319865
v 0.680135 0.400808 0.065116
v 0.065116 0.599192 0.319865
v 0.319865 0.599192 0.065116
v 0.065116 0.599192 0.680135
v 0.319865 0.599192 0.934884
v 0.680135 0.599192 0.934884
v 0.934884 0.599192 0.680135
v 0.934884 0.599192 0.319865
v 0.680135 0.599192 0.065116
v -0.190116 0.599192 0.214145
v 0.214145 0.599192 -0.190116
v -0.190116 0.599192 0.785855
v 0.214145 0.599192 1.190116
v 0.785855 0.599192 1.190116
v 1.190116 0.599192 0.785855
v 1.190116 0.599192 0.214145
v 0.785855 0.599192 -0.190116
v 1.000000 0.406250 0.593750
v 1.000000 0.406250 0.406250
v 0.000000 0.406250 0.593750
v 0.000000 0.406250 0.406250
v 1.000000 0.406250 0.406250
v 0.000000 0.406250 0.406250
v 0.000000 0.593750 0.593750
v 1.000000 0.593750 0.593750
v 1.000000 0.593750 0.406250
v 0.000000 0.593750 0.406250
v 1.000000 0.593750 0.406250
v 0.000000 0.593750 0.406250
v 0.831190 0.406250 0.113862
v 0.668810 0.406250 0.020112
v 0.331190 0.406250 0.979888
v 0.168810 0.406250 0.886138
v 0.668810 0.406250 0.020112
v 0.168810 0.406250 0.886138
v 0.331190 0.593750 0.979888
v 0.831190 0.593750 0.113862
v 0.668810 0.593750 0.020112
v 0.168810 0.593750 0.886138
v 0.668810 0.593750 0.020112
v 0.168810 0.593750 0.886138
v 0.331190 0.406250 0.020112
v 0.168810 0.406250 0.113862
v 0.831190 0.406250 0.886138
v 0.668811 0.406250 0.979888
v 0.168810 0.406250 0.113862
v 0.668811 0.406250 0.979888
v 0.831190 0.593750 0.886138
v 0.331190 0.593750 0.020112
v 0.168810 0.593750 0.113862
v 0.668811 0.593750 0.979888
v 0.168810 0.593750 0.113862
v 0.668811 0.593750 0.979888
v 1.437500 0.406250 0.593750
v 1.437500 0.406250 0.406250
v 1.125000 0.406250 0.593750
v 1.125000 0.406250 0.406250
v 1.125000 0.593750 0.593750
v 1.437500 0.593750 0.593750
v 1.437500 0.593750 0.406250
v 1.125000 0.593750 0.406250
v -0.437124 0.406250 0.406250
v -0.437124 0.406250 0.593750
v -0.124624 0.406250 0.406250
v -0.124624 0.406250 0.593750
v -0.124624 0.593750 0.406250
v -0.437124 0.593750 0.406250
v -0.437124 0.593750 0.593750
v -0.124624 0.593750 0.593750
v 0.593938 0.406250 -0.437312
v 0.406438 0.406250 -0.437312
v 0.593938 0.406250 -0.124812
v 0.406438 0.406250 -0.124812
v 0.593938 0.593750 -0.124812
v 0.593938 0.593750 -0.437312
v 0.406438 0.593750 -0.437312
v 0.406438 0.593750 -0.124812
v 0.406438 0.406250 1.437312
v 0.593938 0.406250 1.437312
v 0.406438 0.406250 1.124812
v 0.593938 0.406250 1.124812
v 0.406438 0.593750 1.124812
v 0.406438 0.593750 1.437312
v 0.593938 0.593750 1.437312
v 0.593938 0.593750 1.124812
v 1.402028 0.406250 0.227920
v 1.330275 0.406250 0.054692
v 1.113316 0.406250 0.347509
v 1.041562 0.406250 0.174281
v 1.113316 0.593750 0.347509
v 1.402028 0.593750 0.227920
v 1.330275 0.593750 0.054692
v 1.041562 0.593750 0.174281
v -0.401652 0.406250 0.772080
v -0.329899 0.406250 0.945308
v -0.112940 0.406250 0.652491
v -0.041187 0.406250 0.825719
v -0.112940 0.593750 0.652491
v -0.401652 0.593750 0.772080
v -0.329899 0.593750 0.945308
v -0.041187 0.593750 0.825719
v 0.228108 0.406250 -0.401840
v 0.054880 0.406250 -0.330087
v 0.347696 0.406250 -0.113128
v 0.174469 0.406250 -0.041375
v 0.347696 0.593750 -0.113128
v 0.228108 0.593750 -0.401840
v 0.054880 0.593750 -0.330087
v 0.174469 0.593750 -0.041375
v 0.772268 0.406250 1.401840
v 0.945496 0.406250 1.330087
v 0.652679 0.406250 1.113128
v 0.825907 0.406250 1.041374
v 0.652679 0.593750 1.113128
v 0.772268 0.593750 1.401840
v 0.945496 0.593750 1.330087
v 0.825907 0.593750 1.041374
v 1.229259 0.406250 -0.096489
v 1.096676 0.406250 -0.229071
v 1.008288 0.406250 0.124482
v 0.875705 0.406250 -0.008100
v 1.008288 0.593750 0.124482
v 1.229259 0.593750 -0.096489
v 1.096676 0.593750 -0.229071
v 0.875705 0.593750 -0.008100
v -0.228883 0.406250 1.096488
v -0.096300 0.406250 1.229071
v -0.007912 0.406250 0.875517
v 0.124670 0.406250 1.008100
v -0.007912 0.593750 0.875517
v -0.228883 0.593750 1.096488
v -0.096300 0.593750 1.229071
v 0.124670 0.593750 1.008100
v -0.096301 0.406250 -0.229071
v -0.228883 0.406250 -0.096488
v 0.124670 0.406250 -0.008100
v -0.007912 0.406250 0.124482
v 0.124670 0.593750 -0.008100
v -0.096301 0.593750 -0.229071
v -0.228883 0.593750 -0.096488
v -0.007912 0.593750 0.124482
v 1.096677 0.406250 1.229071
v 1.229259 0.406250 1.096488
v 0.875705 0.406250 1.008100
v 1.008288 0.406250 0.875518
v 0.875705 0.593750 1.008100
v 1.096677 0.593750 1.229071
v 1.229259 0.593750 1.096488
v 1.008288 0.593750 0.875518
v 0.945495 0.406250 -0.330087
v 0.772268 0.406250 -0.401840
v 0.825907 0.406250 -0.041375
v 0.652679 0.406250 -0.113128
v 0.825907 0.593750 -0.041375
v 0.945495 0.593750 -0.330087
v 0.772268 0.593750 -0.401840
v 0.652679 0.593750 -0.113128
v 0.054880 0.406250 1.330087
v 0.228108 0.406250 1.401840
v 0.174469 0.406250 1.041374
v 0.347696 0.406250 1.113127
v 0.174469 0.593750 1.041374
v 0.054880 0.593750 1.330087
v 0.228108 0.593750 1.401840
v 0.347696 0.593750 1.113127
v -0.329899 0.406250 0.054693
v -0.401652 0.406250 0.227920
v -0.041187 0.406250 0.174281
v -0.112940 0.406250 0.347508
v -0.041187 0.593750 0.174281
v -0.329899 0.593750 0.054693
v -0.401652 0.593750 0.227920
v -0.112940 0.593750 0.347508
v 1.330275 0.406250 0.945307
v 1.402028 0.406250 0.772080
v 1.041563 0.406250 0.825719
v 1.113316 0.406250 0.652492
v 1.041563 0.593750 0.825719
v 1.330275 0.593750 0.945307
v 1.402028 0.593750 0.772080
v 1.113316 0.593750 0.652492
vn -0.0000 -1.0000 -0.0000
vn -0.0000 1.0000 -0.0000
vn -0.0000 -0.0000 1.0000
vn -0.0000 -0.0000 -1.0000
vn 1.0000 -0.0000 -0.0000
vn -1.0000 -0.0000 -0.0000
vn -0.7071 -0.0000 0.7071
vn 0.7071 -0.0000 -0.7071
vn 0.7071 -0.0000 0.7071
vn -0.7071 -0.0000 -0.7071
vn -0.8660 -0.0000 -0.5000
vn 0.8660 -0.0000 0.5000
vn -0.5000 -0.0000 0.8660
vn 0.5000 -0.0000 -0.8660
vn -0.8660 -0.0000 0.5000
vn 0.8660 -0.0000 -0.5000
vn 0.5000 -0.0000 0.8660
vn -0.5000 -0.0000 -0.8660
vn -0.9239 -0.0000 0.3827
vn 0.9239 -0.0000 -0.3827
vn -0.3827 -0.0000 -0.9239
vn 0.3827 -0.0000 0.9239
vn -0.3827 -0.0000 0.9239
vn 0.3827 -0.0000 -0.9239
vn -0.9239 -0.0000 -0.3827
vn 0.9239 -0.0000 0.3827
vt 0.375000 0.375000
vt 0.625000 0.375000
vt 0.625000 0.625000
vt 0.375000 0.625000
vt 0.375000 0.000000
vt 0.625000 0.000000
vt 0.625000 1.000000
vt 0.375000 1.000000
vt 0.312500 0.437500
vt 0.500000 0.437500
vt 0.500000 0.625000
vt 0.312500 0.625000
vt 0.500000 0.843750
vt 0.312500 0.843750
vt 0.247188 0.718750
vt 0.300000 0.843750
vt 0.012500 0.843750
vt 0.065312 0.718750
vt 0.065306 0.718750
vt 0.247194 0.718750
vt 0.296986 0.843750
vt 0.015514 0.843750
vt 0.065312 0.625000
vt 0.247188 0.625000
vt 0.011636 0.406250
vt 0.300864 0.406250
vt 0.300864 0.500000
vt 0.011636 0.500000
vt 0.000000 0.312500
vt 0.500000 0.312500
vt 0.500000 0.406250
vt 0.000000 0.406250
vt 0.000000 0.000000
vt 1.000000 0.000000
vt 1.000000 1.000000
vt 0.000000 1.000000
vt 0.000000 0.218750
vt 0.500000 0.218750
vt 0.000000 1.000000
vt -0.000000 0.843750
vt 0.093750 0.843750
vt 0.093750 1.000000
vt 0.093750 0.906250
vt 0.187500 0.906250
vt 0.187500 1.000000
vt 0.093750 1.000000
vt 0.093750 0.843750
vt 0.093750 1.000000
vt 0.000000 1.000000
vt -0.000000 0.843750
s 0
usemtl shaft_top
f 1/1/1 3/2/1 4/3/1 2/4/1
f 5/1/2 6/2/2 8/3/2 7/4/2
usemtl shaft_side
f 2/5/3 4/6/3 8/7/3 6/8/3
f 3/5/4 1/6/4 5/7/4 7/8/4
f 4/5/5 3/6/5 7/7/5 8/8/5
f 1/5/6 2/6/6 6/7/6 5/8/6
usemtl brass_cog_large_main
f 9/9/1 11/10/1 12/11/1 10/12/1
f 13/9/2 14/10/2 16/11/2 15/12/2
f 12/12/5 11/11/5 15/13/5 16/14/5
f 9/12/6 10/11/6 14/13/6 13/14/6
f 10/12/3 12/11/3 16/13/3 14/14/3
f 11/12/4 9/11/4 13/13/4 15/14/4
f 25/15/1 18/16/1 17/17/1 26/18/1
f 27/15/1 19/16/1 18/17/1 25/18/1
f 28/15/1 20/16/1 19/17/1 27/18/1
f 29/15/1 21/16/1 20/17/1 28/18/1
f 30/15/1 22/16/1 21/17/1 29/18/1
f 31/15/1 23/16/1 22/17/1 30/18/1
f 32/15/1 24/16/1 23/17/1 31/18/1
f 26/15/1 17/16/1 24/17/1 32/18/1
f 33/19/2 34/20/2 42/21/2 41/22/2
f 35/19/2 33/20/2 41/21/2 43/22/2
f 36/19/2 35/20/2 43/21/2 44/22/2
f 37/19/2 36/20/2 44/21/2 45/22/2
f 38/19/2 37/20/2 45/21/2 46/22/2
f 39/19/2 38/20/2 46/21/2 47/22/2
f 40/19/2 39/20/2 47/21/2 48/22/2
f 34/19/2 40/20/2 48/21/2 42/22/2
f 32/23/7 31/24/7 39/15/7 40/18/7
f 23/25/8 24/26/8 48/27/8 47/28/8
f 26/23/3 32/24/3 40/15/3 34/18/3
f 25/23/9 26/24/9 34/15/9 33/18/9
f 24/25/4 17/26/4 42/27/4 48/28/4
f 17/25/10 18/26/10 41/27/10 42/28/10
f 27/23/5 25/24/5 33/15/5 35/18/5
f 18/25/6 19/26/6 43/27/6 41/28/6
f 28/23/8 27/24/8 35/15/8 36/18/8
f 19/25/7 20/26/7 44/27/7 43/28/7
f 29/23/4 28/24/4 36/15/4 37/18/4
f 20/25/3 21/26/3 45/27/3 44/28/3
f 30/23/10 29/24/10 37/15/10 38/18/10
f 21/25/9 22/26/9 46/27/9 45/28/9
f 31/23/6 30/24/6 38/15/6 39/18/6
f 22/25/5 23/26/5 47/27/5 46/28/5
f 49/29/1 51/30/1 52/31/1 50/32/1
f 52/29/2 54/30/2 53/31/2 50/32/2
f 56/30/2 57/31/2 58/32/2 55/29/2
f 58/29/2 57/30/2 59/31/2 60/32/2
f 50/33/2 53/34/2 59/35/2 57/36/2
f 53/37/4 54/38/4 60/30/4 59/29/4
f 51/37/3 49/38/3 56/30/3 55/29/3
f 54/33/2 52/34/2 58/35/2 60/36/2
f 52/33/6 51/34/6 55/35/6 58/36/6
f 49/33/5 50/34/5 57/35/5 56/36/5
f 61/29/1 63/30/1 64/31/1 62/32/1
f 64/29/2 66/30/2 65/31/2 62/32/2
f 68/30/2 69/31/2 70/32/2 67/29/2
f 70/29/2 69/30/2 71/31/2 72/32/2
f 62/33/2 65/34/2 71/35/2 69/36/2
f 65/37/11 66/38/11 72/30/11 71/29/11
f 63/37/12 61/38/12 68/30/12 67/29/12
f 66/33/2 64/34/2 70/35/2 72/36/2
f 64/33/13 63/34/13 67/35/13 70/36/13
f 61/33/14 62/34/14 69/35/14 68/36/14
f 73/29/1 75/30/1 76/31/1 74/32/1
f 76/29/2 78/30/2 77/31/2 74/32/2
f 80/30/2 81/31/2 82/32/2 79/29/2
f 82/29/2 81/30/2 83/31/2 84/32/2
f 74/33/2 77/34/2 83/35/2 81/36/2
f 77/37/15 78/38/15 84/30/15 83/29/15
f 75/37/16 73/38/16 80/30/16 79/29/16
f 78/33/2 76/34/2 82/35/2 84/36/2
f 76/33/17 75/34/17 79/35/17 82/36/17
f 73/33/18 74/34/18 81/35/18 80/36/18
f 85/39/1 87/40/1 88/41/1 86/42/1
f 90/42/2 91/39/2 92/40/2 89/41/2
f 88/43/6 87/44/6 89/45/6 92/46/6
f 85/43/5 86/44/5 91/45/5 90/46/5
f 86/39/4 88/40/4 92/41/4 91/42/4
f 87/47/3 85/48/3 90/49/3 89/50/3
f 93/39/1 95/40/1 96/41/1 94/42/1
f 98/42/2 99/39/2 100/40/2 97/41/2
f 96/43/5 95/44/5 97/45/5 100/46/5
f 93/43/6 94/44/6 99/45/6 98/46/6
f 94/39/3 96/40/3 100/41/3 99/42/3
f 95/47/4 93/48/4 98/49/4 97/50/4
f 101/39/1 103/40/1 104/41/1 102/42/1
f 106/42/2 107/39/2 108/40/2 105/41/2
f 104/43/3 103/44/3 105/45/3 108/46/3
f 101/43/4 102/44/4 107/45/4 106/46/4
f 102/39/6 104/40/6 108/41/6 107/42/6
f 103/47/5 101/48/5 106/49/5 105/50/5
f 109/39/1 111/40/1 112/41/1 110/42/1
f 114/42/2 115/39/2 116/40/2 113/41/2
f 112/43/4 111/44/4 113/45/4 116/46/4
f 109/43/3 110/44/3 115/45/3 114/46/3
f 110/39/5 112/40/5 116/41/5 115/42/5
f 111/47/6 109/48/6 114/49/6 113/50/6
f 117/39/1 119/40/1 120/41/1 118/42/1
f 122/42/2 123/39/2 124/40/2 121/41/2
f 120/43/19 119/44/19 121/45/19 124/46/19
f 117/43/20 118/44/20 123/45/20 122/46/20
f 118/39/21 120/40/21 124/41/21 123/42/21
f 119/47/22 117/48/22 122/49/22 121/50/22
f 125/39/1 127/40/1 128/41/1 126/42/1
f 130/42/2 131/39/2 132/40/2 129/41/2
f 128/43/20 127/44/20 129/45/20 132/46/20
f 125/43/19 126/44/19 131/45/19 130/46/19
f 126/39/22 128/40/22 132/41/22 131/42/22
f 127/47/21 125/48/21 130/49/21 129/50/21
f 133/39/1 135/40/1 136/41/1 134/42/1
f 138/42/2 139/39/2 140/40/2 137/41/2
f 136/43/22 135/44/22 137/45/22 140/46/22
f 133/43/21 134/44/21 139/45/21 138/46/21
f 134/39/19 136/40/19 140/41/19 139/42/19
f 135/47/20 133/48/20 138/49/20 137/50/20
f 141/39/1 143/40/1 144/41/1 142/42/1
f 146/42/2 147/39/2 148/40/2 145/41/2
f 144/43/21 143/44/21 145/45/21 148/46/21
f 141/43/22 142/44/22 147/45/22 146/46/22
f 142/39/20 144/40/20 148/41/20 147/42/20
f 143/47/19 141/48/19 146/49/19 145/50/19
f 149/39/1 151/40/1 152/41/1 150/42/1
f 154/42/2 155/39/2 156/40/2 153/41/2
f 152/43/7 151/44/7 153/45/7 156/46/7
f 149/43/8 150/44/8 155/45/8 154/46/8
f 150/39/10 152/40/10 156/41/10 155/42/10
f 151/47/9 149/48/9 154/49/9 153/50/9
f 157/39/1 159/40/1 160/41/1 158/42/1
f 162/42/2 163/39/2 164/40/2 161/41/2
f 160/43/8 159/44/8 161/45/8 164/46/8
f 157/43/7 158/44/7 163/45/7 162/46/7
f 158/39/9 160/40/9 164/41/9 163/42/9
f 159/47/10 157/48/10 162/49/10 161/50/10
f 165/39/1 167/40/1 168/41/1 166/42/1
f 170/42/2 171/39/2 172/40/2 169/41/2
f 168/43/9 167/44/9 169/45/9 172/46/9
f 165/43/10 166/44/10 171/45/10 170/46/10
f 166/39/7 168/40/7 172/41/7 171/42/7
f 167/47/8 165/48/8 170/49/8 169/50/8
f 173/39/1 175/40/1 176/41/1 174/42/1
f 178/42/2 179/39/2 180/40/2 177/41/2
f 176/43/10 175/44/10 177/45/10 180/46/10
f 173/43/9 174/44/9 179/45/9 178/46/9
f 174/39/8 176/40/8 180/41/8 179/42/8
f 175/47/7 173/48/7 178/49/7 177/50/7
f 181/39/1 183/40/1 184/41/1 182/42/1
f 186/42/2 187/39/2 188/40/2 185/41/2
f 184/43/23 183/44/23 185/45/23 188/46/23
f 181/43/24 182/44/24 187/45/24 186/46/24
f 182/39/25 184/40/25 188/41/25 187/42/25
f 183/47/26 181/48/26 186/49/26 185/50/26
f 189/39/1 191/40/1 192/41/1 190/42/1
f 194/42/2 195/39/2 196/40/2 193/41/2
f 192/43/24 191/44/24 193/45/24 196/46/24
f 189/43/23 190/44/23 195/45/23 194/46/23
f 190/39/26 192/40/26 196/41/26 195/42/26
f 191/47/25 189/48/25 194/49/25 193/50/25
f 197/39/1 199/40/1 200/41/1 198/42/1
f 202/42/2 203/39/2 204/40/2 201/41/2
f 200/43/26 199/44/26 201/45/26 204/46/26
f 197/43/25 198/44/25 203/45/25 202/46/25
f 198/39/23 200/40/23 204/41/23 203/42/23
f 199/47/24 197/48/24 202/49/24 201/50/24
f 205/39/1 207/40/1 208/41/1 206/42/1
f 210/42/2 211/39/2 212/40/2 209/41/2
f 208/43/25 207/44/25 209/45/25 212/46/25
f 205/43/26 206/44/26 211/45/26 210/46/26
f 206/39/24 208/40/24 212/41/24 211/42/24
f 207/47/23 205/48/23 210/49/23 209/50/23
