# Blender 4.0.2
# www.blender.org
mtllib model.mtl
o shaft
v 0.375000 0.000000 0.375000
v 0.375000 0.000000 0.625000
v 0.625000 0.000000 0.375000
v 0.625000 0.000000 0.625000
v 0.375000 1.000000 0.375000
v 0.375000 1.000000 0.625000
v 0.625000 1.000000 0.375000
v 0.625000 1.000000 0.625000
vn -0.0000 -1.0000 -0.0000
vn -0.0000 1.0000 -0.0000
vn -0.0000 -0.0000 1.0000
vn -0.0000 -0.0000 -1.0000
vn 1.0000 -0.0000 -0.0000
vn -1.0000 -0.0000 -0.0000
vt 0.375000 0.375000
vt 0.625000 0.375000
vt 0.625000 0.625000
vt 0.375000 0.625000
vt 0.375000 0.000000
vt 0.625000 0.000000
vt 0.625000 1.000000
vt 0.375000 1.000000
s 0
usemtl shaft_top
f 1/1/1 3/2/1 4/3/1 2/4/1
f 5/1/2 6/2/2 8/3/2 7/4/2
usemtl shaft_side
f 2/5/3 4/6/3 8/7/3 6/8/3
f 3/5/4 1/6/4 5/7/4 7/8/4
f 4/5/5 3/6/5 7/7/5 8/8/5
f 1/5/6 2/6/6 6/7/6 5/8/6
o industrial_iron_cog_with_shaft
v 0.869552 0.118258 0.346926
v 0.653073 0.118258 0.130448
v 0.346927 0.118258 0.130448
v 0.130448 0.118258 0.346927
v 0.130448 0.118258 0.653073
v 0.346927 0.118258 0.869552
v 0.653074 0.118258 0.869552
v 0.869552 0.118258 0.653073
v 0.500000 0.118258 0.500000
v 0.653073 0.881742 0.130448
v 0.869552 0.881742 0.346926
v 0.346927 0.881742 0.130448
v 0.130448 0.881742 0.346927
v 0.130448 0.881742 0.653073
v 0.346927 0.881742 0.869552
v 0.653074 0.881742 0.869552
v 0.869552 0.881742 0.653073
v 0.500000 0.881742 0.500000
v 0.687500 0.125000 0.406250
v 0.687500 0.125000 0.593750
v 1.062500 0.125000 0.406250
v 1.062500 0.125000 0.593750
v 0.687500 0.875000 0.406250
v 0.687500 0.875000 0.593750
v 1.062500 0.875000 0.406250
v 1.062500 0.875000 0.593750
v 0.312500 0.875000 0.312500
v 0.312500 0.875000 0.687500
v 0.687500 0.875000 0.312500
v 0.687500 0.875000 0.687500
v 0.312500 0.937500 0.312500
v 0.312500 0.937500 0.687500
v 0.687500 0.937500 0.312500
v 0.687500 0.937500 0.687500
v 0.312500 0.125000 0.593750
v 0.312500 0.125000 0.406250
v -0.062500 0.125000 0.593750
v -0.062500 0.125000 0.406250
v 0.312500 0.875000 0.593750
v 0.312500 0.875000 0.406250
v -0.062500 0.875000 0.593750
v -0.062500 0.875000 0.406250
v 0.406250 0.125000 0.312500
v 0.593750 0.125000 0.312500
v 0.406250 0.125000 -0.062500
v 0.593750 0.125000 -0.062500
v 0.406250 0.875000 0.312500
v 0.593750 0.875000 0.312500
v 0.406250 0.875000 -0.062500
v 0.593750 0.875000 -0.062500
v 0.593750 0.125000 0.687500
v 0.406250 0.125000 0.687500
v 0.593751 0.125000 1.062500
v 0.406251 0.125000 1.062500
v 0.593750 0.875000 0.687500
v 0.406250 0.875000 0.687500
v 0.593751 0.875000 1.062500
v 0.406251 0.875000 1.062500
v 0.566291 0.125000 0.301126
v 0.698874 0.125000 0.433709
v 0.831456 0.125000 0.035961
v 0.964039 0.125000 0.168544
v 0.566291 0.875000 0.301126
v 0.698874 0.875000 0.433709
v 0.831456 0.875000 0.035961
v 0.964039 0.875000 0.168544
v 0.433709 0.125000 0.698874
v 0.301126 0.125000 0.566291
v 0.168544 0.125000 0.964039
v 0.035961 0.125000 0.831456
v 0.433709 0.875000 0.698874
v 0.301126 0.875000 0.566291
v 0.168544 0.875000 0.964039
v 0.035961 0.875000 0.831456
v 0.301126 0.125000 0.433709
v 0.433709 0.125000 0.301126
v 0.035961 0.125000 0.168544
v 0.168544 0.125000 0.035961
v 0.301126 0.875000 0.433709
v 0.433709 0.875000 0.301126
v 0.035961 0.875000 0.168544
v 0.168544 0.875000 0.035961
v 0.698874 0.125000 0.566291
v 0.566292 0.125000 0.698874
v 0.964040 0.125000 0.831456
v 0.831457 0.125000 0.964039
v 0.698874 0.875000 0.566291
v 0.566292 0.875000 0.698874
v 0.964040 0.875000 0.831456
v 0.831457 0.875000 0.964039
v 0.312500 0.118258 0.687500
v 0.312500 0.118258 0.312500
v 0.687500 0.118258 0.687500
v 0.687500 0.118258 0.312500
v 0.312500 0.055758 0.687500
v 0.312500 0.055758 0.312500
v 0.687500 0.055758 0.687500
v 0.687500 0.055758 0.312500
v 0.375000 0.000000 0.375000
v 0.375000 0.000000 0.625000
v 0.625000 0.000000 0.375000
v 0.625000 0.000000 0.625000
v 0.375000 1.000000 0.375000
v 0.375000 1.000000 0.625000
v 0.625000 1.000000 0.375000
v 0.625000 1.000000 0.625000
vn -0.0000 -1.0000 -0.0000
vn -0.0000 1.0000 -0.0000
vn -0.7071 -0.0000 -0.7071
vn 0.7071 -0.0000 -0.7071
vn 1.0000 -0.0000 -0.0000
vn -0.0000 -0.0000 1.0000
vn -1.0000 -0.0000 -0.0000
vn -0.0000 -0.0000 -1.0000
vn 0.7071 -0.0000 0.7071
vn -0.7071 -0.0000 0.7071
vt 0.000000 1.000000
vt 0.079102 0.812500
vt 0.156250 1.000000
vt 0.156901 1.000000
vt 0.000651 1.000000
vt 0.077799 0.812500
vt 0.000000 0.437500
vt 0.156250 0.437500
vt 0.156250 0.812500
vt 0.000000 0.812500
vt 0.343750 0.812500
vt 0.343750 0.906250
vt 0.156250 0.906250
vt 0.343750 0.437500
vt 0.156250 0.812500
vt 0.343750 0.437500
vt 0.437500 0.437500
vt 0.437500 0.812500
vt 0.437500 0.656250
vt 0.625000 0.656250
vt 0.625000 0.843750
vt 0.437500 0.843750
vt 0.625000 0.437500
vt 0.625000 0.625000
vt 0.437500 0.625000
vt 0.375000 0.375000
vt 0.625000 0.375000
vt 0.375000 0.625000
vt 0.375000 0.000000
vt 0.625000 0.000000
vt 0.625000 1.000000
vt 0.375000 1.000000
s 0
usemtl cog_main
f 9/9/7 17/10/7 10/11/7
f 10/9/7 17/10/7 11/11/7
f 11/9/7 17/10/7 12/11/7
f 12/9/7 17/10/7 13/11/7
f 13/9/7 17/10/7 14/11/7
f 14/9/7 17/10/7 15/11/7
f 15/9/7 17/10/7 16/11/7
f 16/9/7 17/10/7 9/11/7
f 19/12/8 18/13/8 26/14/8
f 18/12/8 20/13/8 26/14/8
f 20/12/8 21/13/8 26/14/8
f 21/12/8 22/13/8 26/14/8
f 22/12/8 23/13/8 26/14/8
f 23/12/8 24/13/8 26/14/8
f 24/12/8 25/13/8 26/14/8
f 25/12/8 19/13/8 26/14/8
f 11/15/9 12/16/9 21/17/9 20/18/9
f 9/15/10 10/16/10 18/17/10 19/18/10
f 16/15/11 9/16/11 19/17/11 25/18/11
f 14/15/12 15/16/12 24/17/12 23/18/12
f 12/15/13 13/16/13 22/17/13 21/18/13
f 10/15/14 11/16/14 20/17/14 18/18/14
f 15/15/15 16/16/15 25/17/15 24/18/15
f 13/15/16 14/16/16 23/17/16 22/18/16
f 27/17/7 29/19/7 30/20/7 28/21/7
f 31/21/8 32/17/8 34/19/8 33/20/8
f 28/16/12 30/22/12 34/19/12 32/23/12
f 29/16/14 27/24/14 31/19/14 33/17/14
f 30/24/11 29/25/11 33/26/11 34/19/11
f 27/24/13 28/25/13 32/26/13 31/19/13
f 35/27/7 37/28/7 38/29/7 36/30/7
f 39/25/8 40/31/8 42/32/8 41/33/8
f 38/33/11 37/32/11 41/28/11 42/27/11
f 35/33/13 36/32/13 40/28/13 39/27/13
f 36/33/12 38/32/12 42/28/12 40/27/12
f 37/33/14 35/32/14 39/28/14 41/27/14
f 43/17/7 45/19/7 46/20/7 44/21/7
f 47/21/8 48/17/8 50/19/8 49/20/8
f 44/16/14 46/22/14 50/19/14 48/23/14
f 45/16/12 43/24/12 47/19/12 49/17/12
f 46/24/13 45/25/13 49/26/13 50/19/13
f 43/24/11 44/25/11 48/26/11 47/19/11
f 51/17/7 53/19/7 54/20/7 52/21/7
f 55/21/8 56/17/8 58/19/8 57/20/8
f 52/16/11 54/22/11 58/19/11 56/23/11
f 53/16/13 51/24/13 55/19/13 57/17/13
f 54/24/14 53/25/14 57/26/14 58/19/14
f 51/24/12 52/25/12 56/26/12 55/19/12
f 59/17/7 61/19/7 62/20/7 60/21/7
f 63/21/8 64/17/8 66/19/8 65/20/8
f 60/16/13 62/22/13 66/19/13 64/23/13
f 61/16/11 59/24/11 63/19/11 65/17/11
f 62/24/12 61/25/12 65/26/12 66/19/12
f 59/24/14 60/25/14 64/26/14 63/19/14
f 67/17/7 69/19/7 70/20/7 68/21/7
f 71/21/8 72/17/8 74/19/8 73/20/8
f 68/16/15 70/22/15 74/19/15 72/23/15
f 69/16/9 67/24/9 71/19/9 73/17/9
f 70/24/10 69/25/10 73/26/10 74/19/10
f 67/24/16 68/25/16 72/26/16 71/19/16
f 75/17/7 77/19/7 78/20/7 76/21/7
f 79/21/8 80/17/8 82/19/8 81/20/8
f 76/16/9 78/22/9 82/19/9 80/23/9
f 77/16/15 75/24/15 79/19/15 81/17/15
f 78/24/16 77/25/16 81/26/16 82/19/16
f 75/24/10 76/25/10 80/26/10 79/19/10
f 83/17/7 85/19/7 86/20/7 84/21/7
f 87/21/8 88/17/8 90/19/8 89/20/8
f 84/16/10 86/22/10 90/19/10 88/23/10
f 85/16/16 83/24/16 87/19/16 89/17/16
f 86/24/9 85/25/9 89/26/9 90/19/9
f 83/24/15 84/25/15 88/26/15 87/19/15
f 91/17/7 93/19/7 94/20/7 92/21/7
f 95/21/8 96/17/8 98/19/8 97/20/8
f 92/16/16 94/22/16 98/19/16 96/23/16
f 93/16/10 91/24/10 95/19/10 97/17/10
f 94/24/15 93/25/15 97/26/15 98/19/15
f 91/24/9 92/25/9 96/26/9 95/19/9
f 99/27/8 101/28/8 102/29/8 100/30/8
f 103/25/7 104/31/7 106/32/7 105/33/7
f 102/33/11 101/32/11 105/28/11 106/27/11
f 99/33/13 100/32/13 104/28/13 103/27/13
f 100/33/14 102/32/14 106/28/14 104/27/14
f 101/33/12 99/32/12 103/28/12 105/27/12
usemtl shaft_top
f 107/34/7 109/35/7 110/32/7 108/36/7
f 111/34/8 112/35/8 114/32/8 113/36/8
usemtl shaft_side
f 108/37/12 110/38/12 114/39/12 112/40/12
f 109/37/14 107/38/14 111/39/14 113/40/14
f 110/37/11 109/38/11 113/39/11 114/40/11
f 107/37/13 108/38/13 112/39/13 111/40/13
